# Blender v2.79 (sub 0) OBJ File: 'spaceShipA.blend'
# www.blender.org
mtllib spaceShipA.mtl
o Cube
v 0.500000 -0.413124 -0.500000
v 0.343992 -0.291359 0.500000
v -0.346599 -0.291359 0.500000
v -0.500000 -0.413124 -0.500000
v 0.585918 -0.171482 -0.500000
v 0.585918 0.000000 0.500000
v -0.632558 0.000000 0.500000
v -0.632558 -0.171482 -0.500000
v 0.275672 0.506002 -0.500000
v 0.269401 0.500000 0.500000
v -0.269402 0.500000 0.500000
v -0.275672 0.506002 -0.500000
v 0.248208 -0.413123 -1.583989
v -0.248207 -0.413123 -1.583989
v 0.585918 -0.171482 -1.583989
v -0.632558 -0.171482 -1.583989
v 0.241152 0.506002 -1.583989
v -0.241152 0.506002 -1.583989
v 0.175619 -0.059414 1.749881
v -0.175619 -0.059414 1.749881
v 0.247887 -0.000000 1.749882
v -0.247888 -0.000000 1.749881
v 0.178564 0.056993 1.749882
v -0.178565 0.056993 1.749881
v 0.166667 -0.364600 -0.500000
v -0.166667 -0.364600 -0.500000
v 0.166667 -0.288488 0.500000
v -0.166667 -0.288488 0.500000
v 0.221296 0.500000 -0.500000
v -0.221296 0.500000 -0.500000
v -0.149779 -0.372665 -2.441429
v 0.149780 -0.372665 -2.441429
v 0.082736 -0.364600 -1.583989
v -0.082736 -0.364600 -1.583989
v 0.145797 0.500000 -1.583989
v -0.145796 0.500000 -1.583989
v 0.019041 -0.059414 2.056965
v -0.015341 -0.059414 2.056965
v 0.040944 -0.000000 2.056965
v -0.038215 -0.000000 2.056965
v 0.019329 0.056993 2.056965
v -0.015629 0.056993 2.056965
v 0.160674 0.737479 -0.500000
v -0.160674 0.737479 -0.500000
v 0.137504 0.765402 0.001834
v -0.137504 0.765402 0.001834
v 0.145797 0.646940 -1.565445
v -0.145796 0.646940 -1.565445
v -0.632558 0.198789 -0.500000
v -0.632558 0.202761 -1.583989
v 0.585918 0.210382 -1.583989
v 0.585918 0.196632 -0.500000
v 0.312839 0.445383 0.500000
v -0.318427 0.445383 0.500000
v 0.312839 0.468940 -0.500000
v 0.282455 0.470587 -1.583989
v -0.145521 0.456448 -2.441429
v 0.497250 -0.154688 -2.441429
v -0.533618 -0.154688 -2.441429
v 0.145522 0.456448 -2.441429
v -0.318426 0.469198 -0.500000
v -0.288042 0.469674 -1.583989
v 0.049927 -0.315633 -2.441429
v -0.049926 -0.315633 -2.441429
v 0.160197 -0.154688 -2.441429
v -0.160196 -0.154688 -2.441429
v 0.087980 0.451034 -2.441429
v -0.087980 0.451034 -2.441429
v -0.137136 0.185227 -2.441429
v -0.381713 0.182904 -2.441429
v 0.353569 0.189779 -2.441429
v 0.136679 0.187705 -2.441429
v 0.170446 0.424501 -2.441429
v 0.093814 0.419487 -2.441429
v -0.093869 0.419190 -2.441429
v -0.173817 0.423677 -2.441429
v 0.917371 0.550564 -0.500000
v -0.928553 0.550564 -0.500000
v 0.917371 0.550564 -1.583989
v -0.928553 0.550564 -1.583989
v 0.917371 0.513501 -0.500000
v 0.917371 0.515149 -1.583989
v -0.928553 0.501010 -2.441429
v 0.917371 0.501010 -2.441429
v -0.928553 0.513760 -0.500000
v -0.928553 0.514236 -1.583989
v 0.917371 0.469063 -2.441429
v -0.928553 0.468239 -2.441429
v 1.770758 0.126475 -0.684674
v -1.781939 0.126475 -0.684674
v 1.770758 0.126475 -1.232146
v -1.781939 0.126475 -1.232146
v 1.761989 0.029178 -0.740413
v 1.761989 0.030001 -1.219769
v -1.781939 0.076921 -1.665198
v 1.770758 0.076921 -1.665198
v -1.764960 0.029307 -0.740413
v -1.764960 0.029545 -1.219769
v 1.761989 0.027843 -1.598942
v -1.764960 0.027432 -1.598942
v 0.514160 -0.373299 -0.500000
v 0.780727 -0.372665 -2.441429
v 0.780727 -0.413124 -0.500000
v -0.521846 -0.373299 -0.500000
v 0.587143 -0.373299 -1.583989
v -0.594830 -0.373299 -1.583989
v -0.775489 -0.372665 -2.441429
v -0.775489 -0.413124 -0.500000
v -0.775489 -0.413123 -1.583989
v 0.780727 -0.413123 -1.583989
v -0.499732 -0.336740 -2.441429
v 0.500254 -0.336740 -2.441429
v 0.068100 -0.266793 -2.441429
v -0.068099 -0.266793 -2.441429
v 0.780727 -0.373299 -0.500000
v -0.775489 -0.373299 -0.500000
v 0.780727 -0.373299 -1.583989
v -0.775489 -0.373299 -1.583989
v -0.775489 -0.336740 -2.441429
v 0.780727 -0.336740 -2.441429
v 1.753220 -0.030332 -1.532685
v 1.753220 -0.076558 -0.796152
v -1.747981 -0.030332 -1.532686
v -1.747981 -0.076558 -0.796152
v -1.747981 -0.076558 -1.207392
v 1.753220 -0.076558 -1.207392
v 2.195281 0.126475 -1.232146
v 2.195281 0.126475 -0.684674
v -2.198331 0.126475 -0.684674
v -2.198331 0.126475 -1.232146
v 0.497250 -0.154688 -2.534873
v 0.160197 -0.154688 -2.534873
v 0.500254 -0.336740 -2.534873
v 0.068100 -0.266793 -2.534873
v -0.533618 -0.154688 -2.534873
v -0.160196 -0.154688 -2.534873
v -0.499732 -0.336740 -2.534873
v -0.068099 -0.266793 -2.534873
v 0.596522 0.528283 -0.500000
v 0.579262 0.528283 -1.583989
v 0.543908 0.446782 -2.441429
v 0.599913 0.492868 -1.583989
v 0.615105 0.491221 -0.500000
v 0.531447 0.478729 -2.441429
v -0.537037 0.478729 -2.441429
v -0.551185 0.445958 -2.441429
v -0.584852 0.528283 -1.583989
v -0.602112 0.528283 -0.500000
v -0.623489 0.491479 -0.500000
v -0.608297 0.491955 -1.583989
v 0.241123 0.755825 -1.979048
v -0.241180 0.755825 -1.979049
v -0.145550 0.706270 -2.444656
v 0.145493 0.706270 -2.444656
v 0.579233 0.778106 -1.979048
v 0.531418 0.728551 -2.444656
v -0.537066 0.728551 -2.444656
v -0.584881 0.778106 -1.979049
v -0.145521 0.455141 -2.530170
v 0.145522 0.455141 -2.530170
v 0.531447 0.477422 -2.530170
v -0.537036 0.477422 -2.530170
v -0.145549 0.696728 -2.533397
v 0.145494 0.696728 -2.533397
v 0.531419 0.719009 -2.533397
v -0.537065 0.719009 -2.533397
v 2.195281 0.029178 -0.740413
v -2.198331 0.076921 -1.665198
v 2.195281 0.076921 -1.665198
v -2.198331 0.029307 -0.740413
v 2.195281 0.027843 -1.598942
v -2.198331 0.027432 -1.598942
v 2.195281 -0.030332 -1.532685
v 2.195281 -0.076558 -0.796152
v -2.198331 -0.030332 -1.532686
v -2.198331 -0.076558 -0.796152
v -2.198331 -0.076558 -1.207392
v 2.195281 -0.076558 -1.207392
v 2.195281 0.026639 -1.219769
v -2.198331 0.026487 -1.219769
v 1.845254 0.514500 -0.706803
v -1.856777 0.514500 -0.706803
v 1.845254 0.514500 -1.254274
v -1.856777 0.514500 -1.254274
v -1.856777 0.464946 -1.687327
v 1.845254 0.464946 -1.687327
v 1.985972 0.514500 -1.254274
v 1.985972 0.514500 -0.706803
v -1.989022 0.514500 -0.706803
v -1.989022 0.514500 -1.254274
v -1.989022 0.464946 -1.687327
v 1.985972 0.464946 -1.687327
v 1.829283 -0.438252 -1.561525
v 1.829283 -0.484479 -0.824991
v -1.823685 -0.438252 -1.561525
v -1.823685 -0.484479 -0.824991
v -1.823685 -0.484478 -1.236232
v 1.829283 -0.484478 -1.236232
v 2.009898 -0.392687 -1.528901
v 2.009898 -0.435013 -0.854522
v -2.012948 -0.392687 -1.528901
v -2.012948 -0.435013 -0.854522
v -2.012948 -0.435013 -1.231059
v 2.009898 -0.435013 -1.231059
v -1.781939 0.063017 -1.777842
v 1.770758 0.063017 -1.777842
v -2.198331 0.063017 -1.777842
v 2.195281 0.063017 -1.777842
v -1.856777 0.451043 -1.799971
v 1.845254 0.451043 -1.799971
v -1.989022 0.451043 -1.799971
v 1.985972 0.451043 -1.799971
vn 0.0992 -0.9909 0.0904
vn -0.3685 -0.9271 -0.0680
vn 0.8357 -0.5315 0.1385
vn -0.7691 0.5871 0.2526
vn -0.7709 -0.6200 0.1461
vn 0.0000 -0.9989 -0.0471
vn 0.1097 0.9939 0.0053
vn 0.7510 0.6602 0.0121
vn -1.0000 0.0000 0.0000
vn 0.0663 0.9978 0.0005
vn 0.0000 -0.9984 -0.0570
vn -0.0799 0.9968 0.0041
vn 0.6785 0.7346 -0.0043
vn -0.9381 -0.3450 0.0316
vn 0.1909 -0.9812 0.0296
vn 0.0000 0.0000 -1.0000
vn -0.7064 -0.5656 0.4255
vn 0.7286 -0.6526 0.2081
vn 0.7542 0.5998 0.2674
vn 0.1545 -0.9720 0.1770
vn -0.5822 0.7521 0.3089
vn 0.5922 0.7450 0.3071
vn 0.0000 0.9618 0.2737
vn -0.1517 -0.9724 0.1771
vn 0.0000 -0.9893 0.1456
vn 0.7110 -0.5634 0.4208
vn 0.0000 -0.0000 1.0000
vn -0.1909 -0.9812 0.0296
vn 0.0000 -1.0000 -0.0000
vn 0.0799 0.9968 0.0041
vn -0.9407 0.3384 -0.0219
vn 0.7030 0.6911 -0.1680
vn -0.3696 -0.9290 -0.0202
vn -0.9764 -0.1822 -0.1161
vn -0.1097 0.9939 0.0053
vn -0.9863 0.1579 -0.0481
vn -0.0997 -0.9909 0.0903
vn -0.0000 -0.9971 0.0759
vn 0.0000 0.9964 -0.0847
vn 0.0000 0.9985 -0.0556
vn 0.0000 0.1252 -0.9921
vn 0.9863 0.1579 -0.0481
vn -0.0000 0.8826 0.4702
vn 0.9407 0.3384 -0.0219
vn 0.0643 -0.9966 0.0515
vn 1.0000 0.0000 0.0000
vn 0.0000 0.9984 -0.0570
vn 0.3696 -0.9290 -0.0202
vn -0.0744 0.9959 -0.0506
vn -0.7057 0.7084 0.0128
vn -0.7495 0.6579 0.0732
vn -0.9590 0.2047 -0.1960
vn 0.9648 0.1909 -0.1810
vn -0.0675 0.9977 0.0005
vn -0.6321 0.7748 -0.0073
vn -0.7039 0.5676 0.4271
vn 0.8028 0.5472 0.2367
vn 0.7085 0.5653 0.4224
vn 0.7940 0.6042 0.0665
vn -0.7146 0.6414 0.2793
vn 0.0744 0.9959 -0.0506
vn -0.6668 0.7256 -0.1698
vn -0.4450 0.8955 0.0000
vn -0.4990 -0.8659 0.0338
vn 0.4450 0.8955 0.0000
vn -0.3433 -0.6311 -0.6956
vn 0.0604 0.9966 -0.0559
vn -0.0711 -0.9975 -0.0009
vn -0.0613 0.9966 -0.0559
vn 0.0717 -0.9974 -0.0020
vn -0.0637 -0.9966 0.0513
vn 0.0000 -0.7514 -0.6598
vn -0.8882 -0.4594 -0.0000
vn 0.0000 -0.4659 0.8848
vn 0.8801 0.4717 -0.0540
vn -0.0241 -0.3866 0.9219
vn 0.3578 -0.6140 -0.7035
vn 0.5013 -0.8653 -0.0004
vn 0.0253 -0.3845 0.9228
vn 0.5023 -0.8640 0.0336
vn -0.4977 -0.8674 -0.0014
vn 0.4793 0.8751 -0.0672
vn -0.4793 0.8751 -0.0672
vn -0.1598 -0.9872 0.0000
vn 0.9948 0.0110 -0.1015
vn 0.0000 1.0000 0.0000
vn 0.7727 0.6348 0.0000
vn -0.3720 -0.3692 0.8517
vn -0.3271 -0.9450 -0.0000
vn -0.3779 0.9255 0.0257
vn 0.0000 0.9991 0.0426
vn 0.9845 -0.1720 0.0331
vn -0.8608 -0.4722 0.1896
vn 0.9260 -0.3293 0.1846
vn -0.6830 -0.6975 0.2165
vn 0.0000 0.0569 0.9984
vn 0.0000 -0.4976 0.8674
vn 0.0000 -0.4663 0.8846
vn 0.3693 -0.3516 0.8602
vn 0.3770 0.9262 0.0001
vn 0.6784 -0.4642 -0.5695
vn 0.3271 -0.9450 -0.0000
vn -0.6685 -0.5064 -0.5447
vn -0.3798 0.9251 0.0005
vn 0.3685 -0.9271 -0.0680
vn 0.3749 0.9267 0.0258
vn 0.0000 -0.4971 0.8677
vn -0.0491 0.0255 -0.9985
vn -0.8801 0.4748 0.0000
vn -0.9831 -0.1815 -0.0258
vn 0.0000 -0.7538 -0.6571
vn 0.9999 0.0165 -0.0000
vn -0.7727 0.6348 0.0000
vn -0.9831 -0.1830 -0.0000
vn 0.1600 -0.9871 0.0000
vn 0.0717 -0.9974 -0.0030
vn -0.9962 -0.0543 -0.0679
vn -0.0675 0.9977 0.0016
vn 0.0643 -0.9968 0.0473
vn -0.0637 -0.9969 0.0471
vn -0.0711 -0.9975 -0.0019
vn 0.0547 0.8439 0.5337
vn 0.0663 0.9978 0.0016
vn -0.0611 0.9935 -0.0963
vn 0.0602 0.9935 -0.0965
vn 0.9962 -0.0541 -0.0680
vn -0.0568 -0.9983 0.0147
vn -1.0000 -0.0001 0.0000
vn -0.9851 0.1070 0.1344
vn 0.9851 0.1072 0.1344
vn -0.0556 0.8439 0.5336
vn -0.0008 -0.0134 -0.9999
vn 0.0008 -0.0134 -0.9999
vn -0.0573 0.9926 -0.1067
vn 1.0000 0.0001 -0.0000
vn 0.0576 -0.9982 0.0147
vn 0.0565 0.9927 -0.1067
vn 0.0000 -0.8036 -0.5952
vn -0.8881 -0.4550 -0.0647
vn 0.0000 -0.8012 -0.5984
vn -0.9821 0.1873 -0.0214
vn 0.0000 0.9935 -0.1137
vn 0.9819 0.1882 -0.0215
vn -0.9821 0.1885 0.0000
vn 0.8801 0.4748 0.0000
vn 0.0000 0.9925 -0.1225
vn -0.9820 0.1872 -0.0231
vn -0.8801 0.4717 -0.0540
vn 0.9819 0.1894 0.0000
vn 0.2653 -0.9546 -0.1357
vn -0.2529 -0.9675 -0.0000
vn -0.2540 -0.9576 -0.1361
vn 0.2641 -0.9645 -0.0000
vn 0.9832 -0.1807 -0.0257
vn 0.9832 -0.1825 -0.0000
vn 0.0505 0.0253 -0.9984
vn 0.8882 -0.4594 -0.0000
vn -0.9831 -0.1833 -0.0000
vn 0.8881 -0.4550 -0.0647
vn 0.0566 -0.1209 0.9911
vn -0.0551 -0.1207 0.9912
vn 0.0000 -0.0569 -0.9984
vn 0.0000 -0.9925 0.1225
vn -0.8800 0.4714 -0.0582
vn 0.9819 0.1881 -0.0232
vn 0.8800 0.4714 -0.0582
usemtl Material
s off
f 26//1 28//1 3//1 4//1
f 107//2 109//2 125//2 123//2
f 101//3 5//3 6//3 2//3
f 54//4 7//4 22//4 24//4
f 3//5 7//5 8//5 104//5
f 31//6 14//6 109//6 107//6
f 30//7 12//7 11//7
f 53//8 55//8 9//8 10//8
f 8//9 7//9 49//9
f 8//9 49//9 50//9 16//9
f 148//10 147//10 80//10 78//10
f 33//11 34//11 64//11 63//11
f 29//12 9//12 17//12 35//12
f 55//13 52//13 51//13 56//13
f 104//14 8//14 16//14 106//14
f 26//15 4//15 14//15 34//15
f 58//16 65//16 72//16 71//16
f 38//17 40//17 22//17 20//17
f 2//18 6//18 21//18 19//18
f 53//19 10//19 23//19
f 27//20 2//20 19//20 37//20
f 11//21 24//21 42//21
f 10//22 41//22 23//22
f 10//23 11//23 42//23 41//23
f 3//24 28//24 38//24 20//24
f 28//25 27//25 37//25 38//25
f 19//26 21//26 39//26 37//26
f 37//27 39//27 40//27 38//27
f 114//16 64//16 31//16 111//16
f 66//16 59//16 70//16 69//16
f 1//28 25//28 33//28 13//28
f 25//29 26//29 34//29 33//29
f 12//30 30//30 36//30 18//30
f 30//31 11//31 46//31 44//31
f 56//32 51//32 71//32 73//32
f 13//33 33//33 63//33 32//33
f 106//34 16//34 59//34 111//34
f 4//27 104//27 116//27 108//27
f 9//35 29//35 10//35
f 36//36 30//36 44//36 48//36
f 1//37 2//37 27//37 25//37
f 25//38 27//38 28//38 26//38
f 44//39 43//39 47//39 48//39
f 43//40 44//40 46//40 45//40
f 35//41 36//41 48//41 47//41
f 29//42 35//42 47//42 43//42
f 11//43 10//43 45//43 46//43
f 10//44 29//44 43//44 45//44
f 142//45 141//45 87//45 82//45
f 51//46 52//46 5//46 15//46
f 36//47 35//47 67//47 68//47
f 52//46 6//46 5//46
f 34//48 14//48 31//48 64//48
f 35//49 17//49 60//49 67//49
f 61//50 54//50 11//50 12//50
f 49//51 7//51 54//51 61//51
f 16//52 50//52 70//52 59//52
f 51//53 15//53 58//53 71//53
f 140//54 139//54 77//54 79//54
f 50//55 49//55 61//55 62//55
f 40//27 39//27 41//27 42//27
f 22//56 40//56 42//56 24//56
f 6//57 53//57 23//57 21//57
f 39//58 21//58 23//58 41//58
f 145//16 146//16 88//16 83//16
f 6//59 52//59 55//59 53//59
f 11//60 54//60 24//60
f 65//16 66//16 69//16 72//16
f 112//16 32//16 63//16 113//16
f 113//16 63//16 64//16 114//16
f 73//16 74//16 67//16 60//16
f 75//16 76//16 57//16 68//16
f 74//16 75//16 68//16 67//16
f 72//16 69//16 75//16 74//16
f 69//16 70//16 76//16 75//16
f 71//16 72//16 74//16 73//16
f 18//61 36//61 68//61 57//61
f 50//62 62//62 76//62 70//62
f 78//63 80//63 92//63 90//63
f 82//64 87//64 99//64 94//64
f 79//65 77//65 89//65 91//65
f 83//66 88//66 100//66 95//66
f 147//67 145//67 83//67 80//67
f 150//68 149//68 85//68 86//68
f 149//27 148//27 78//27 85//27
f 139//27 143//27 81//27 77//27
f 144//69 140//69 79//69 84//69
f 143//70 142//70 82//70 81//70
f 141//16 144//16 84//16 87//16
f 146//71 150//71 86//71 88//71
f 121//72 99//72 171//72 173//72
f 176//73 177//73 203//73 202//73
f 124//74 97//74 170//74 176//74
f 127//75 169//75 192//75 187//75
f 85//76 78//76 90//76 97//76
f 87//77 84//77 96//77 99//77
f 86//78 85//78 97//78 98//78
f 77//79 81//79 93//79 89//79
f 88//80 86//80 98//80 100//80
f 81//81 82//81 94//81 93//81
f 84//82 79//82 91//82 96//82
f 80//83 83//83 95//83 92//83
f 65//16 113//16 114//16 66//16
f 112//84 113//84 134//84 133//84
f 15//85 105//85 112//85 58//85
f 104//86 106//86 118//86 116//86
f 66//87 114//87 138//87 136//87
f 108//88 116//88 97//88 124//88
f 109//89 108//89 124//89 125//89
f 111//16 31//16 107//16 119//16
f 120//90 117//90 94//90 99//90
f 112//91 105//91 117//91 120//91
f 5//92 101//92 105//92 15//92
f 3//93 104//93 4//93
f 1//94 101//94 2//94
f 7//95 3//95 20//95 22//95
f 106//91 111//91 119//91 118//91
f 101//27 1//27 103//27 115//27
f 14//29 4//29 108//29 109//29
f 105//86 101//86 115//86 117//86
f 1//29 13//29 110//29 103//29
f 32//16 112//16 120//16 102//16
f 13//6 32//6 102//6 110//6
f 129//96 90//96 182//96 189//96
f 97//97 90//97 129//97 170//97
f 93//98 122//98 174//98 167//98
f 177//9 176//9 170//9 180//9
f 115//99 103//99 122//99 93//99
f 116//100 118//100 98//100 97//100
f 102//101 120//101 99//101 121//101
f 103//102 110//102 126//102 122//102
f 119//103 107//103 123//103 100//103
f 117//104 115//104 93//104 94//104
f 110//105 102//105 121//105 126//105
f 118//106 119//106 100//106 98//106
f 89//107 93//107 167//107 128//107
f 175//108 123//108 195//108 201//108
f 130//109 129//109 189//109 190//109
f 126//110 121//110 193//110 198//110
f 171//46 169//46 127//46 179//46
f 100//111 123//111 175//111 172//111
f 171//46 179//46 178//46 173//46
f 129//9 130//9 180//9 170//9
f 131//16 133//16 134//16 132//16
f 58//112 112//112 133//112 131//112
f 113//113 65//113 132//113 134//113
f 65//86 58//86 131//86 132//86
f 136//16 138//16 137//16 135//16
f 111//114 59//114 135//114 137//114
f 59//86 66//86 136//86 135//86
f 114//115 111//115 137//115 138//115
f 73//16 60//16 144//16 141//16
f 55//116 56//116 142//116 143//116
f 145//117 147//117 158//117 157//117
f 9//27 55//27 143//27 139//27
f 17//118 9//118 139//118 140//118
f 56//119 73//119 141//119 142//119
f 76//120 62//120 150//120 146//120
f 61//27 12//27 148//27 149//27
f 62//121 61//121 149//121 150//121
f 147//122 18//122 152//122 158//122
f 57//16 76//16 146//16 145//16
f 12//123 18//123 147//123 148//123
f 154//124 151//124 155//124 156//124
f 152//125 153//125 157//125 158//125
f 140//126 144//126 156//126 155//126
f 57//127 145//127 162//127 159//127
f 145//128 157//128 166//128 162//128
f 60//129 17//129 151//129 154//129
f 18//130 57//130 153//130 152//130
f 17//131 140//131 155//131 151//131
f 159//132 162//132 166//132 163//132
f 161//133 160//133 164//133 165//133
f 154//134 156//134 165//134 164//134
f 153//135 57//135 159//135 163//135
f 156//135 144//135 161//135 165//135
f 144//136 60//136 160//136 161//136
f 157//137 153//137 163//137 166//137
f 60//128 154//128 164//128 160//128
f 99//138 96//138 169//138 171//138
f 177//139 175//139 201//139 203//139
f 95//140 100//140 172//140 168//140
f 96//141 91//141 183//141 186//141
f 178//46 179//46 167//46 174//46
f 127//46 128//46 167//46 179//46
f 172//9 175//9 177//9 180//9
f 168//9 172//9 180//9 130//9
f 182//86 184//86 190//86 189//86
f 186//142 183//142 187//142 192//142
f 183//86 181//86 188//86 187//86
f 184//142 185//142 191//142 190//142
f 92//143 95//143 185//143 184//143
f 89//96 128//96 188//96 181//96
f 91//144 89//144 181//144 183//144
f 128//145 127//145 187//145 188//145
f 191//146 185//146 209//146 211//146
f 96//147 186//147 210//147 206//147
f 168//148 130//148 190//148 191//148
f 90//149 92//149 184//149 182//149
f 198//150 193//150 199//150 204//150
f 197//151 196//151 202//151 203//151
f 195//152 197//152 203//152 201//152
f 194//153 198//153 204//153 200//153
f 123//154 125//154 197//154 195//154
f 125//155 124//155 196//155 197//155
f 121//156 173//156 199//156 193//156
f 178//157 174//157 200//157 204//157
f 122//158 126//158 198//158 194//158
f 173//159 178//159 204//159 199//159
f 174//160 122//160 194//160 200//160
f 124//161 176//161 202//161 196//161
f 208//162 206//162 210//162 212//162
f 205//162 207//162 211//162 209//162
f 186//146 192//146 212//146 210//146
f 169//163 96//163 206//163 208//163
f 168//164 191//164 211//164 207//164
f 95//163 168//163 207//163 205//163
f 185//165 95//165 205//165 209//165
f 192//166 169//166 208//166 212//166
