# Blender v2.79 (sub 0) OBJ File: ''
# www.blender.org
mtllib spaceshipM.mtl
o Cube.001
v -1.000000 -0.259724 -1.395411
v 1.000000 -0.259724 -1.395411
v 1.000000 -0.259724 0.604589
v -1.000000 -0.259724 0.604589
v -1.000000 0.506234 -1.395411
v -1.000000 0.506234 0.604589
v 1.000000 0.506234 0.604589
v 1.000001 0.506234 -1.395410
v 1.984500 -0.274874 -0.997982
v 1.984500 -0.274874 0.170767
v -0.640782 0.250195 1.221572
v 0.640784 0.250195 1.221572
v -1.984500 -0.274874 -0.997983
v -1.984500 0.225126 -0.997983
v -1.984501 -0.274874 0.170766
v -1.984500 0.225126 0.170766
v -2.984499 -0.006370 -0.203832
v -2.984500 -0.305446 -0.203832
v 1.984500 0.225126 0.170767
v 1.984501 0.225126 -0.997982
v 2.984501 -0.006370 -0.889566
v 2.984500 -0.305447 -0.889567
v -0.246443 0.163731 1.489862
v 0.246441 0.163731 1.489863
v -0.640784 -0.135141 1.221571
v 0.640783 -0.135141 1.221572
v 2.984500 -0.006370 -0.203831
v 2.984500 -0.305447 -0.203831
v -2.984499 -0.006370 -0.889567
v -2.984499 -0.305447 -0.889567
v 0.246441 -0.048677 1.489862
v -0.246443 -0.048677 1.489862
vn 0.0000 -1.0000 -0.0000
vn -0.0000 1.0000 0.0000
vn 0.0000 0.0000 -1.0000
vn -0.0154 -0.9999 -0.0000
vn 0.0000 0.9236 0.3833
vn -0.3743 0.0000 -0.9273
vn -0.3508 0.0000 0.9365
vn 0.2746 0.9616 0.0000
vn 0.4032 -0.0000 0.9151
vn 0.3743 0.0000 -0.9273
vn 0.1078 0.0000 -0.9942
vn -0.2746 0.9616 0.0000
vn -0.4032 0.0000 0.9151
vn 0.0154 -0.9999 -0.0000
vn -0.0000 0.9518 0.3067
vn -0.8642 0.0000 0.5032
vn -0.0000 -0.9802 0.1979
vn 0.8642 -0.0000 0.5031
vn 1.0000 -0.0000 0.0000
vn -1.0000 0.0000 -0.0000
vn 0.0306 -0.9995 0.0000
vn 0.3508 -0.0000 0.9365
vn -0.2255 0.9742 0.0000
vn -0.0306 -0.9995 -0.0000
vn -0.1078 0.0000 -0.9942
vn 0.2255 0.9742 0.0000
vn -0.0000 -0.0000 1.0000
vn 0.5625 -0.0000 0.8268
vn -0.5625 0.0000 0.8268
vn -0.0000 -0.9518 0.3067
usemtl Material.001
s 1
f 1//1 2//1 3//1 4//1
f 5//2 6//2 7//2 8//2
f 1//3 5//3 8//3 2//3
f 3//4 2//4 9//4 10//4
f 7//5 6//5 11//5 12//5
f 5//6 1//6 13//6 14//6
f 15//7 16//7 17//7 18//7
f 8//8 7//8 19//8 20//8
f 7//9 3//9 10//9 19//9
f 2//10 8//10 20//10 9//10
f 9//11 20//11 21//11 22//11
f 6//12 5//12 14//12 16//12
f 4//13 6//13 16//13 15//13
f 1//14 4//14 15//14 13//14
f 12//15 11//15 23//15 24//15
f 6//16 4//16 25//16 11//16
f 4//17 3//17 26//17 25//17
f 3//18 7//18 12//18 26//18
f 22//19 21//19 27//19 28//19
f 29//20 30//20 18//20 17//20
f 13//21 15//21 18//21 30//21
f 19//22 10//22 28//22 27//22
f 16//23 14//23 29//23 17//23
f 10//24 9//24 22//24 28//24
f 14//25 13//25 30//25 29//25
f 20//26 19//26 27//26 21//26
f 31//27 24//27 23//27 32//27
f 26//28 12//28 24//28 31//28
f 11//29 25//29 32//29 23//29
f 25//30 26//30 31//30 32//30
